<svg xmlns="http://www.w3.org/2000/svg" version="1.1" xmlns:xlink="http://www.w3.org/1999/xlink" width="512" height="512" x="0" y="0" viewBox="0 0 100 100" style="enable-background:new 0 0 512 512" xml:space="preserve" class=""><g><linearGradient id="a" x1="3" x2="97" y1="50" y2="50" gradientUnits="userSpaceOnUse"><stop offset="0" stop-color="#0164ff"></stop><stop offset="1" stop-color="#3dbaf2"></stop></linearGradient><path fill="url(#a)" d="M49.88 55.57a5.81 5.81 0 1 0-5.81-5.81 5.82 5.82 0 0 0 5.81 5.81zm0-7.62a1.81 1.81 0 1 1-1.81 1.81A1.82 1.82 0 0 1 49.88 48zM97 50c0-6.55-9.72-11.18-22.62-13.7C78.93 24 80 13.25 74.43 9.85c-4-2.46-10.14-.26-17.62 6.36A78.7 78.7 0 0 0 51 22a77.56 77.56 0 0 0-5.4-6.17c-7-7.13-12.92-9.75-17.13-7.58S23 16.74 24.7 26.58A83.38 83.38 0 0 0 27.05 36C13.44 38.48 3 43.21 3 50c0 6.55 9.72 11.18 22.62 13.7C21.07 76 20 86.75 25.57 90.15a6.9 6.9 0 0 0 3.65 1c3.73 0 8.48-2.48 14-7.34A78.7 78.7 0 0 0 49 78a77.56 77.56 0 0 0 5.4 6.17c5.4 5.51 10.16 8.32 14 8.32a6.7 6.7 0 0 0 3.14-.74c4.21-2.17 5.51-8.51 3.76-18.35A83.38 83.38 0 0 0 73 64c13.56-2.48 24-7.21 24-14zM59.46 19.2c5.28-4.67 9.06-6.31 11.32-6.31a3 3 0 0 1 1.57.38C75.19 15 75 23.42 70.4 35.6c-3.49-.54-7.16-.94-10.88-1.19-2-3.27-4-6.35-6.07-9.19a75.85 75.85 0 0 1 6.01-6.02zM34.19 54c.54 1.11 1.09 2.23 1.66 3.34.73 1.4 1.46 2.78 2.22 4.13q-3.68-.31-7-.8C32 58.48 33 56.26 34.19 54zm-1.87-14.79c1.93-.26 4-.48 6.08-.66-.67 1.05-1.34 2.1-2 3.18s-1.27 2.12-1.89 3.19c-.79-1.92-1.51-3.84-2.19-5.71zm4.21 10.3c1-1.86 2.11-3.76 3.29-5.7s2.36-3.77 3.57-5.57q3.2-.15 6.61-.15c2.47 0 4.86.06 7.15.17q1.77 3 3.44 6.28c1 2 2 4 2.88 6-1 1.86-2.11 3.76-3.29 5.7s-2.36 3.76-3.57 5.52q-3.2.15-6.61.15c-2.47 0-4.86-.06-7.15-.17q-1.77-3-3.44-6.28c-1.03-1.99-1.97-3.98-2.88-5.95zm27.06 8.76c.65-1.05 1.27-2.12 1.89-3.19.8 1.93 1.54 3.84 2.2 5.71-1.93.26-4 .48-6.08.66.67-1.05 1.34-2.1 1.99-3.18zm2.22-12.22c-.54-1.11-1.09-2.23-1.66-3.34-.73-1.4-1.46-2.78-2.22-4.13q3.67.31 7 .8c-.93 2.14-1.93 4.36-3.12 6.67zM54.68 34.17c-1.56-.06-3.13-.08-4.68-.08h-3.74c1.49-2 3-4 4.51-5.82 1.32 1.9 2.62 3.86 3.91 5.9zM30.29 11.78a2.81 2.81 0 0 1 1.3-.28c2.22 0 6 1.85 11.14 7.11A73.92 73.92 0 0 1 48.31 25c-2.4 2.85-4.79 6-7.12 9.32-3.46.22-6.87.56-10.15 1a78.41 78.41 0 0 1-2.4-9.51c-1.59-8.88-.19-13.08 1.65-14.03zM7 50c0-3.43 7.76-7.79 21.3-10.17 1.09 3.11 2.34 6.31 3.77 9.55-1.85 3.52-3.53 7.08-5 10.56C14.31 57.52 7 53.32 7 50zm33.54 30.8c-6.8 6-11.12 7-12.89 5.93C24.81 85 25 76.58 29.6 64.4c3.49.54 7.16.94 10.88 1.19 2 3.27 4 6.35 6.07 9.19a75.85 75.85 0 0 1-6.01 6.02zm4.78-15c1.56.06 3.13.08 4.68.08h3.74c-1.49 2-3 4-4.51 5.82-1.32-1.87-2.62-3.83-3.91-5.87zm24.39 22.42c-1.85 1-6.08-.35-12.44-6.83A73.92 73.92 0 0 1 51.69 75c2.4-2.85 4.79-6 7.12-9.32 3.46-.22 6.87-.56 10.15-1a78.41 78.41 0 0 1 2.4 9.51c1.64 8.88.19 13.08-1.65 14.03zm2-28a130.87 130.87 0 0 0-3.77-9.55c1.85-3.52 3.53-7.08 5-10.56C85.69 42.48 93 46.68 93 50s-7.76 7.79-21.3 10.17z" opacity="1" data-original="url(#a)" class=""></path></g></svg>